<svg width="800" height="500" viewBox="0 0 800 500" xmlns="http://www.w3.org/2000/svg">
  <!-- Background -->
  <rect width="800" height="500" fill="#F8FAFC" rx="12" />
  
  <!-- Sidebar -->
  <rect width="200" height="500" fill="#FFFFFF" rx="12" />
  <rect x="200" width="1" height="500" fill="#E2E8F0" />
  
  <!-- Logo -->
  <rect x="24" y="24" width="32" height="32" rx="6" fill="#1B4332" />
  <text x="70" y="46" font-family="sans-serif" font-weight="bold" font-size="16" fill="#1B4332">CredBuddy</text>
  
  <!-- Nav Items -->
  <rect x="16" y="80" width="168" height="36" rx="6" fill="#F0FDF4" />
  <text x="48" y="103" font-family="sans-serif" font-size="14" fill="#1B4332" font-weight="500">Dashboard</text>
  <rect x="26" y="91" width="14" height="14" rx="2" fill="#1B4332" />
  
  <text x="48" y="149" font-family="sans-serif" font-size="14" fill="#64748B">Search</text>
  <rect x="26" y="137" width="14" height="14" rx="2" fill="#94A3B8" />
  
  <text x="48" y="195" font-family="sans-serif" font-size="14" fill="#64748B">Reports</text>
  <rect x="26" y="183" width="14" height="14" rx="2" fill="#94A3B8" />
  
  <text x="48" y="241" font-family="sans-serif" font-size="14" fill="#64748B">Settings</text>
  <rect x="26" y="229" width="14" height="14" rx="2" fill="#94A3B8" />

  <!-- Main Content Area -->
  <text x="240" y="50" font-family="sans-serif" font-weight="bold" font-size="20" fill="#1E293B">Risk Overview</text>
  
  <!-- Stats Cards -->
  <!-- Card 1 -->
  <rect x="240" y="80" width="170" height="100" rx="8" fill="#FFFFFF" stroke="#E2E8F0" />
  <text x="260" y="110" font-family="sans-serif" font-size="12" fill="#64748B">Total Checks</text>
  <text x="260" y="140" font-family="sans-serif" font-weight="bold" font-size="24" fill="#1E293B">1,245</text>
  <text x="260" y="165" font-family="sans-serif" font-size="12" fill="#16A34A">+12% vs last month</text>
  
  <!-- Card 2 -->
  <rect x="426" y="80" width="170" height="100" rx="8" fill="#FFFFFF" stroke="#E2E8F0" />
  <text x="446" y="110" font-family="sans-serif" font-size="12" fill="#64748B">High Risk Alerts</text>
  <text x="446" y="140" font-family="sans-serif" font-weight="bold" font-size="24" fill="#1E293B">42</text>
  <text x="446" y="165" font-family="sans-serif" font-size="12" fill="#DC2626">-5% improvement</text>
  
  <!-- Card 3 -->
  <rect x="612" y="80" width="170" height="100" rx="8" fill="#FFFFFF" stroke="#E2E8F0" />
  <text x="632" y="110" font-family="sans-serif" font-size="12" fill="#64748B">Credits Used</text>
  <text x="632" y="140" font-family="sans-serif" font-weight="bold" font-size="24" fill="#1E293B">85%</text>
  <rect x="632" y="155" width="130" height="6" rx="3" fill="#E2E8F0" />
  <rect x="632" y="155" width="110" height="6" rx="3" fill="#F59E0B" />

  <!-- Recent Activity Table -->
  <rect x="240" y="210" width="542" height="260" rx="8" fill="#FFFFFF" stroke="#E2E8F0" />
  <text x="260" y="240" font-family="sans-serif" font-weight="bold" font-size="16" fill="#1E293B">Recent Company Checks</text>
  
  <!-- Table Header -->
  <line x1="240" y1="260" x2="782" y2="260" stroke="#E2E8F0" />
  <text x="260" y="280" font-family="sans-serif" font-size="12" fill="#94A3B8">COMPANY</text>
  <text x="420" y="280" font-family="sans-serif" font-size="12" fill="#94A3B8">REG NO.</text>
  <text x="560" y="280" font-family="sans-serif" font-size="12" fill="#94A3B8">STATUS</text>
  <text x="680" y="280" font-family="sans-serif" font-size="12" fill="#94A3B8">SCORE</text>
  
  <!-- Row 1 -->
  <rect x="250" y="295" width="522" height="40" rx="4" fill="#F8FAFC" />
  <text x="260" y="320" font-family="sans-serif" font-size="13" fill="#334155" font-weight="500">TechParts Pty Ltd</text>
  <text x="420" y="320" font-family="sans-serif" font-size="13" fill="#64748B">2023/001234/07</text>
  <rect x="560" y="308" width="60" height="20" rx="10" fill="#DCFCE7" />
  <text x="575" y="322" font-family="sans-serif" font-size="10" fill="#166534" font-weight="bold">SAFE</text>
  <text x="680" y="320" font-family="sans-serif" font-size="13" fill="#16A34A" font-weight="bold">95/100</text>
  
  <!-- Row 2 -->
  <text x="260" y="365" font-family="sans-serif" font-size="13" fill="#334155" font-weight="500">Global Logistics</text>
  <text x="420" y="365" font-family="sans-serif" font-size="13" fill="#64748B">2019/998877/07</text>
  <rect x="560" y="353" width="70" height="20" rx="10" fill="#FEF3C7" />
  <text x="570" y="367" font-family="sans-serif" font-size="10" fill="#92400E" font-weight="bold">WARNING</text>
  <text x="680" y="365" font-family="sans-serif" font-size="13" fill="#D97706" font-weight="bold">65/100</text>

  <!-- Row 3 -->
  <text x="260" y="410" font-family="sans-serif" font-size="13" fill="#334155" font-weight="500">Retail Sol</text>
  <text x="420" y="410" font-family="sans-serif" font-size="13" fill="#64748B">2021/555111/07</text>
  <rect x="560" y="398" width="70" height="20" rx="10" fill="#FEE2E2" />
  <text x="570" y="412" font-family="sans-serif" font-size="10" fill="#991B1B" font-weight="bold">CRITICAL</text>
  <text x="680" y="410" font-family="sans-serif" font-size="13" fill="#DC2626" font-weight="bold">30/100</text>

</svg>